<?xml version="1.0" standalone="no"?>
<!DOCTYPE svg PUBLIC "-//W3C//DTD SVG 20010904//EN"
 "http://www.w3.org/TR/2001/REC-SVG-20010904/DTD/svg10.dtd">
<svg version="1.0" xmlns="http://www.w3.org/2000/svg"
 width="512.000000pt" height="512.000000pt" viewBox="0 0 512.000000 512.000000"
 preserveAspectRatio="xMidYMid meet">
<metadata>
Created by potrace 1.14, written by Peter Selinger 2001-2017
</metadata>
<g transform="translate(0.000000,512.000000) scale(0.100000,-0.100000)"
fill="#000000" stroke="none">
<path d="M2950 4981 c-199 -43 -364 -169 -473 -363 -48 -85 -58 -127 -33 -147
12 -10 12 -18 2 -49 -12 -33 -17 -37 -47 -38 -100 -2 -188 69 -237 192 -88
217 -265 351 -502 380 -136 17 -277 5 -388 -32 -92 -31 -167 -78 -243 -154
-60 -59 -85 -93 -117 -160 -22 -47 -46 -106 -53 -132 l-11 -48 -52 -1 c-172
-2 -339 -73 -463 -196 -99 -99 -166 -212 -225 -383 -34 -98 -37 -125 -14 -148
15 -16 131 -17 1489 -17 l1472 -1 25 26 c21 21 35 25 88 26 45 1 62 -3 62 -12
0 -41 6 -41 913 -40 l869 1 18 23 c27 33 11 60 -60 99 -88 49 -163 124 -237
237 -76 115 -146 186 -242 244 -116 69 -242 105 -407 117 -93 7 -121 13 -177
41 -63 32 -121 95 -158 174 -89 189 -226 305 -419 355 -98 25 -276 28 -380 6z"/>
<path d="M194 3419 c-12 -4 -26 -14 -30 -21 -5 -7 -9 -98 -9 -201 -2 -206 3
-227 54 -227 49 0 51 9 51 218 0 224 -8 253 -66 231z"/>
<path d="M1733 3408 c-16 -18 -18 -40 -19 -219 -1 -156 2 -203 13 -219 17 -24
41 -26 71 -4 22 15 22 20 22 217 0 111 -4 207 -8 214 -4 6 -19 16 -34 22 -21
8 -29 6 -45 -11z"/>
<path d="M3280 3412 c-21 -18 -22 -44 -21 -333 1 -101 2 -106 25 -118 30 -16
60 -7 73 22 14 34 10 402 -5 420 -20 23 -50 27 -72 9z"/>
<path d="M4059 3411 c-29 -23 -29 -115 0 -144 44 -44 92 5 86 86 -5 63 -46 90
-86 58z"/>
<path d="M948 3403 c-13 -16 -15 -45 -9 -116 0 -9 12 -22 26 -29 19 -9 29 -8
50 6 21 14 25 24 25 67 0 28 -5 59 -10 70 -13 24 -62 25 -82 2z"/>
<path d="M2498 3401 c-18 -25 -16 -234 2 -256 14 -17 43 -19 71 -5 17 10 19
22 19 126 0 63 -5 124 -10 135 -14 25 -64 25 -82 0z"/>
<path d="M4830 3405 c-17 -21 -17 -399 0 -420 17 -21 66 -19 82 4 10 13 13 65
12 197 -1 222 -3 234 -48 234 -18 0 -39 -7 -46 -15z"/>
<path d="M963 2907 c-12 -5 -23 -17 -25 -26 -3 -9 -4 -105 -4 -214 1 -180 3
-200 19 -212 23 -17 58 -11 75 12 17 24 17 403 0 425 -18 22 -39 27 -65 15z"/>
<path d="M4059 2901 c-20 -16 -21 -26 -21 -221 0 -194 1 -205 20 -221 29 -23
69 -14 79 20 13 42 8 397 -6 414 -19 23 -49 27 -72 8z"/>
<path d="M2407 2884 c-1 -1 -22 -5 -47 -9 -294 -43 -621 -177 -916 -375 -243
-165 -580 -490 -730 -706 -43 -62 -47 -83 -20 -110 18 -17 22 -17 141 9 112
25 143 29 260 31 184 5 363 -32 507 -105 32 -16 69 -29 84 -29 14 0 58 17 98
39 134 72 347 128 506 135 l35 1 0 -660 c1 -363 5 -676 9 -695 13 -58 66 -148
113 -191 123 -113 304 -128 450 -36 103 65 163 188 163 337 0 70 -12 105 -48
143 -67 70 -193 49 -241 -40 -6 -12 -13 -53 -14 -92 -4 -76 -17 -101 -53 -101
-32 0 -54 26 -54 63 -2 136 0 1270 2 1272 2 2 48 -3 102 -11 169 -24 338 -77
434 -138 54 -34 89 -33 161 3 141 72 290 104 476 105 133 0 193 -7 328 -40 79
-19 111 -11 119 29 5 26 -51 109 -157 234 -52 61 -295 306 -356 360 -68 59
-234 181 -329 242 -109 71 -345 189 -440 221 -36 12 -72 25 -81 30 -23 12
-256 67 -319 76 -53 7 -178 13 -183 8z"/>
<path d="M173 2213 c-18 -18 -19 -36 -19 -265 1 -263 4 -278 52 -278 52 0 54
11 54 278 0 136 -4 252 -8 259 -14 23 -59 26 -79 6z"/>
<path d="M4836 2214 c-19 -18 -17 1 -17 -279 0 -261 -2 -230 17 -249 20 -20
58 -20 74 -1 16 19 21 478 6 510 -17 38 -53 46 -80 19z"/>
<path d="M172 954 c-15 -11 -17 -38 -18 -246 -2 -259 2 -278 56 -278 19 0 33
7 40 19 6 12 10 112 10 254 0 210 -2 235 -17 249 -22 18 -48 19 -71 2z"/>
<path d="M4848 963 c-9 -2 -20 -14 -24 -26 -12 -38 -8 -476 5 -491 19 -22 50
-25 73 -7 20 17 21 25 22 251 1 212 -1 236 -17 257 -18 23 -26 25 -59 16z"/>
</g>
</svg>
