<?xml version="1.0" standalone="no"?>
<!DOCTYPE svg PUBLIC "-//W3C//DTD SVG 20010904//EN"
 "http://www.w3.org/TR/2001/REC-SVG-20010904/DTD/svg10.dtd">
<svg version="1.0" xmlns="http://www.w3.org/2000/svg"
 width="700.000000pt" height="700.000000pt" viewBox="0 0 700.000000 700.000000"
 preserveAspectRatio="xMidYMid meet">
<metadata>
Created by potrace 1.14, written by Peter Selinger 2001-2017
</metadata>
<g transform="translate(0.000000,700.000000) scale(0.100000,-0.100000)"
fill="#000000" stroke="none">
<path d="M3864 6966 l-34 -34 0 -150 c0 -147 1 -151 26 -181 47 -57 137 -50
175 13 16 26 19 52 19 164 0 142 -9 176 -52 206 -12 9 -40 16 -61 16 -31 0
-46 -7 -73 -34z"/>
<path d="M1868 6448 c-256 -18 -517 -139 -708 -328 -130 -129 -219 -271 -280
-449 l-36 -105 -50 -13 c-172 -44 -352 -188 -437 -352 -60 -113 -81 -200 -81
-326 -1 -190 60 -345 187 -481 104 -111 199 -171 348 -216 74 -22 79 -22 884
-26 l810 -3 40 -87 c147 -320 420 -594 742 -747 1 -1 -8 -32 -22 -71 -66 -191
-51 -378 47 -565 92 -179 274 -318 477 -366 70 -17 154 -18 1146 -18 993 0
1076 1 1154 18 188 41 332 119 471 257 113 112 177 215 226 357 117 343 28
711 -233 964 -171 166 -368 251 -617 266 l-109 6 -91 91 c-79 79 -152 135
-257 199 -25 15 -25 16 -16 89 13 108 2 346 -23 463 -68 322 -214 583 -453
811 -482 461 -1222 552 -1804 221 -62 -35 -63 -35 -130 -26 -37 5 -93 9 -123
8 l-55 -2 -80 82 c-251 259 -561 375 -927 349z m357 -252 c50 -15 128 -47 175
-72 81 -43 210 -138 217 -159 1 -5 -23 -21 -53 -34 -129 -56 -280 -181 -370
-308 -100 -139 -165 -331 -168 -495 -1 -81 1 -89 24 -113 34 -34 77 -45 119
-31 53 17 68 48 80 162 32 305 231 543 521 623 91 26 254 28 348 6 302 -71
522 -335 539 -646 12 -212 -62 -404 -210 -548 -99 -96 -190 -147 -326 -182
-71 -18 -126 -19 -1135 -19 -1160 0 -1118 -2 -1230 58 -28 15 -79 55 -114 89
-262 259 -156 692 198 809 81 27 217 24 295 -5 33 -13 81 -25 108 -28 43 -5
50 -2 82 30 41 41 46 84 16 133 -15 25 -38 39 -99 63 -44 17 -98 33 -121 37
-49 8 -49 6 10 132 105 227 305 406 544 487 103 35 177 44 320 41 116 -3 155
-8 230 -30z m2935 -1854 c98 -27 177 -63 261 -117 69 -45 149 -112 149 -125 0
-4 -20 -15 -44 -24 -118 -45 -300 -196 -386 -320 -90 -131 -156 -321 -160
-461 -3 -108 -2 -115 29 -146 24 -23 38 -29 73 -29 77 0 118 52 118 148 0 27
9 84 20 128 81 321 358 537 686 536 325 -1 605 -216 684 -528 24 -94 26 -251
5 -342 -60 -255 -262 -458 -520 -522 -79 -20 -108 -20 -1160 -18 l-1080 3 -57
23 c-138 56 -249 164 -298 292 -27 69 -37 195 -21 272 28 134 129 266 249 327
133 67 263 76 400 26 107 -39 159 -30 191 32 16 31 14 85 -5 112 -21 30 -123
78 -196 92 -68 14 -69 17 -30 110 119 276 369 479 672 544 95 21 322 13 420
-13z"/>
<path d="M5403 6328 c-69 -68 -131 -135 -139 -150 -43 -84 27 -179 118 -161
24 5 65 37 154 125 67 65 129 133 139 152 40 73 -14 156 -102 156 -44 0 -47
-2 -170 -122z"/>
<path d="M5829 4781 c-41 -42 -41 -107 0 -153 l29 -33 155 0 c173 0 185 4 214
73 18 42 4 92 -34 122 -23 18 -40 20 -180 20 l-155 0 -29 -29z"/>
<path d="M1165 3600 c-11 -4 -29 -18 -41 -31 -27 -31 -151 -256 -159 -291 -10
-40 20 -93 63 -114 32 -15 41 -15 77 -3 37 13 45 23 118 154 44 77 81 154 84
170 7 43 -11 82 -49 105 -35 21 -60 24 -93 10z"/>
<path d="M1615 3603 c-11 -3 -30 -14 -42 -26 -26 -23 -158 -258 -168 -297 -22
-90 100 -160 169 -97 27 24 161 260 172 300 16 65 -62 136 -131 120z"/>
<path d="M2134 3591 c-22 -13 -53 -59 -107 -157 -89 -161 -95 -193 -48 -246
25 -28 36 -33 75 -33 35 0 51 6 70 25 41 42 168 280 169 316 1 45 -20 80 -58
99 -43 20 -63 19 -101 -4z"/>
<path d="M2597 3599 c-44 -12 -51 -21 -132 -168 -87 -160 -94 -194 -46 -242
24 -23 38 -29 74 -29 58 0 71 14 160 171 59 104 71 132 71 171 1 35 -4 53 -19
68 -27 26 -73 39 -108 29z"/>
<path d="M727 2839 c-34 -26 -177 -286 -177 -321 0 -85 83 -133 159 -93 20 10
49 51 99 142 91 165 95 177 82 219 -23 70 -108 97 -163 53z"/>
<path d="M1185 2851 c-31 -13 -46 -35 -124 -177 -84 -154 -88 -179 -36 -231
32 -32 40 -35 76 -30 22 3 49 13 60 23 10 9 53 79 94 154 88 160 92 185 41
236 -35 35 -68 42 -111 25z"/>
<path d="M1713 2845 c-11 -8 -56 -77 -99 -152 -63 -112 -78 -146 -79 -181 0
-37 5 -48 33 -73 40 -36 96 -39 135 -8 34 26 177 286 177 321 0 64 -46 108
-112 108 -19 0 -43 -7 -55 -15z"/>
<path d="M2158 2845 c-30 -17 -176 -271 -185 -320 -7 -44 32 -97 80 -109 68
-17 93 4 174 150 39 71 77 142 83 158 13 34 -1 84 -30 111 -26 23 -89 29 -122
10z"/>
<path d="M3013 1844 c-24 -12 -48 -47 -112 -162 -45 -81 -81 -158 -81 -172 0
-74 82 -126 151 -97 31 13 47 34 114 153 102 182 107 228 32 274 -38 24 -62
25 -104 4z"/>
<path d="M3475 1853 c-36 -9 -65 -45 -140 -183 -76 -138 -84 -164 -64 -203 28
-54 108 -76 156 -42 12 8 56 77 98 152 90 160 97 196 49 243 -30 29 -65 40
-99 33z"/>
<path d="M4005 1851 c-31 -13 -47 -36 -124 -176 -82 -151 -88 -185 -43 -235
35 -40 85 -48 128 -21 40 24 185 280 187 328 2 77 -77 133 -148 104z"/>
<path d="M4454 1849 c-41 -12 -51 -24 -133 -174 -83 -153 -89 -188 -42 -236
24 -23 38 -29 73 -29 24 0 51 7 61 14 27 21 177 296 177 326 0 20 -33 90 -42
90 -2 0 -17 4 -33 8 -17 5 -44 5 -61 1z"/>
<path d="M4875 1846 c-23 -10 -45 -40 -91 -122 -118 -208 -120 -213 -84 -271
26 -44 82 -61 132 -40 30 13 46 34 112 153 43 77 80 153 83 169 7 43 -11 82
-49 105 -38 23 -61 24 -103 6z"/>
<path d="M5335 1851 c-43 -13 -58 -32 -135 -171 -80 -145 -89 -173 -69 -213
28 -54 108 -76 156 -42 12 8 55 77 97 153 87 159 94 193 49 241 -30 31 -65 43
-98 32z"/>
<path d="M5853 1841 c-43 -27 -183 -280 -183 -332 0 -45 29 -84 75 -99 30 -10
41 -9 73 7 32 15 48 38 114 158 89 161 96 195 51 245 -36 40 -86 48 -130 21z"/>
<path d="M6314 1849 c-41 -12 -50 -24 -133 -175 -83 -152 -89 -187 -42 -235
36 -36 95 -40 134 -9 32 25 177 288 177 321 0 20 -33 89 -42 89 -2 0 -17 4
-33 8 -17 5 -44 5 -61 1z"/>
<path d="M2587 1089 c-34 -26 -177 -286 -177 -321 0 -84 83 -133 158 -94 19
10 50 54 99 143 91 163 97 177 83 219 -23 70 -108 97 -163 53z"/>
<path d="M3027 1089 c-15 -11 -60 -82 -102 -157 -89 -162 -93 -186 -40 -239
32 -32 40 -35 76 -30 22 3 49 13 60 23 10 9 53 79 94 154 88 160 92 185 41
236 -41 41 -89 46 -129 13z"/>
<path d="M3566 1088 c-28 -26 -165 -270 -173 -309 -6 -31 18 -81 49 -103 31
-22 90 -20 121 4 33 26 177 289 177 323 0 14 -5 38 -12 52 -25 55 -117 73
-162 33z"/>
<path d="M4016 1092 c-32 -19 -174 -266 -183 -317 -7 -44 32 -97 80 -109 68
-17 93 6 182 165 55 99 77 150 77 175 0 84 -84 130 -156 86z"/>
<path d="M4441 1083 c-41 -39 -171 -276 -171 -312 0 -64 44 -111 105 -111 55
0 78 24 157 167 42 76 77 147 78 158 5 47 -2 68 -29 96 -40 40 -98 41 -140 2z"/>
<path d="M4887 1090 c-35 -27 -177 -285 -177 -321 0 -102 124 -147 183 -66 13
18 54 87 90 153 79 143 83 170 33 220 -40 40 -89 46 -129 14z"/>
<path d="M5426 1088 c-13 -13 -57 -81 -97 -153 -88 -157 -95 -198 -41 -246 24
-22 42 -29 73 -29 55 0 79 26 167 186 84 154 89 179 38 230 -43 43 -100 47
-140 12z"/>
<path d="M5878 1095 c-17 -10 -53 -61 -104 -152 -61 -109 -78 -147 -78 -180
-1 -55 33 -92 91 -100 57 -7 87 24 173 179 89 160 93 215 20 253 -36 19 -67
19 -102 0z"/>
</g>
</svg>
